<svg id="Capa_1" data-name="Capa 1" xmlns="http://www.w3.org/2000/svg" viewBox="0 0 477.86 477.86"><defs><style>.cls-1{fill:#fff;stroke:#000;stroke-miterlimit:10;}</style></defs><title>homeArtboard 1</title><path class="cls-1" d="M472.86,226.86l-34.13-34.13L251,5a17.05,17.05,0,0,0-24.13,0L39.13,192.73,5,226.86A17.07,17.07,0,0,0,29.13,251l5-5V460.8A17.06,17.06,0,0,0,51.2,477.86H153.6V290.13a17.07,17.07,0,0,1,17.07-17.07H307.2a17.07,17.07,0,0,1,17.07,17.07V477.86h102.4a17.06,17.06,0,0,0,17.06-17.06V246l5,5a17.07,17.07,0,0,0,24.13-24.14Z"/></svg>